<svg xmlns="http://www.w3.org/2000/svg" width="255" height="92" viewBox="0 0 255 92">
  <g id="Grupo_2047" data-name="Grupo 2047" transform="translate(-336 -448)">
    <g id="Symbols" transform="translate(336 447.643)">
      <g id="header-_-desktop-_-navigation-_-clicked" data-name="header-/-desktop-/-navigation-/-clicked" transform="translate(-15)">
        <g id="Group-56" transform="translate(15)">
          <path id="Trazado_1" data-name="Trazado 1" d="M0,92.357H255v-92H0Z" fill="#fff" fill-rule="evenodd"/>
        </g>
      </g>
    </g>
    <g id="Grupo_2046" data-name="Grupo 2046" transform="translate(-22.929 24.27)">
      <path id="Trazado_1478" data-name="Trazado 1478" d="M46.71,6.26l5.465,15.293H41.267ZM45.113.592,33.013,32.37h4.318l2.7-7.421H53.411l2.654,7.421h4.3L48.262.592Z" transform="translate(359.874 425.961)" fill="#f63"/>
      <rect id="Rectángulo_798" data-name="Rectángulo 798" width="3.958" height="31.779" transform="translate(547.061 443.383)" fill="#f63"/>
      <path id="Trazado_1479" data-name="Trazado 1479" d="M24,17.911,14.214,43.438,4.386,17.911H0L12.64,49.69h3.1l12.6-31.779Z" transform="translate(360.929 425.408)" fill="#f63"/>
      <path id="Trazado_1480" data-name="Trazado 1480" d="M68.233.592V32.371h18.2V28.616H72.191V.592Z" transform="translate(358.749 425.961)" fill="#f63"/>
      <path id="Trazado_1481" data-name="Trazado 1481" d="M52.21,39.564H37.166L33.048,50.382h4.318l2.7-7.422H53.447L56.1,50.382h4.3L56.277,39.564Z" transform="translate(359.873 424.716)" fill="#f63"/>
      <path id="Trazado_1482" data-name="Trazado 1482" d="M217.9,6.26l5.465,15.293H212.461Zm-1.6-5.668-12.1,31.778h4.318l2.7-7.421h13.382l2.654,7.421h4.3L219.456.592Z" transform="translate(354.405 425.961)" fill="#f63"/>
      <path id="Trazado_1483" data-name="Trazado 1483" d="M223.4,39.564H208.362l-4.12,10.818h4.318l2.7-7.422h13.381l2.654,7.422h4.3l-4.118-10.818Z" transform="translate(354.404 424.716)" fill="#f63"/>
      <path id="Trazado_1484" data-name="Trazado 1484" d="M24.653.592,20.507,11.41h4.2L28.993.592Z" transform="translate(360.274 425.961)" fill="#f63"/>
      <path id="Trazado_1485" data-name="Trazado 1485" d="M0,.592,4.3,11.41H8.551L4.386.592Z" transform="translate(360.929 425.961)" fill="#f63"/>
      <path id="Trazado_1486" data-name="Trazado 1486" d="M169.262,46.711c-7.6,0-10.8-5.532-10.8-12.684s3.194-12.685,10.8-12.685c4.7,0,7.827,1.957,9.739,6.545h3.978a10.25,10.25,0,0,0-.737-2.379,13.694,13.694,0,0,0-12.98-7.944c-9.805,0-14.731,7.13-14.731,16.306,0,.053,0,.1,0,.158s0,.1,0,.157c0,9.176,4.925,16.306,14.731,16.306a13.694,13.694,0,0,0,12.98-7.944,10.235,10.235,0,0,0,.737-2.379H179c-1.912,4.589-5.038,6.545-9.739,6.545" transform="translate(355.992 425.419)" fill="#f63"/>
      <path id="Trazado_1487" data-name="Trazado 1487" d="M72.191,39.564H68.233V50.382H86.427V46.626H72.191Z" transform="translate(358.749 424.716)" fill="#f63"/>
      <rect id="Rectángulo_799" data-name="Rectángulo 799" width="3.958" height="10.882" transform="translate(547.061 426.554)" fill="#f63"/>
      <path id="Trazado_1488" data-name="Trazado 1488" d="M98,45.935V35.589h15.406V31.923H98V21.555h16.935V17.912H94.043V49.691h20.893V45.935Z" transform="translate(357.924 425.408)" fill="#f63"/>
      <path id="Trazado_1489" data-name="Trazado 1489" d="M128.185,41.108V24.278l14.956,25.347h4.093V17.846h-3.823V43.125l-15-25.279h-4.048V49.625h3.824Z" transform="translate(356.956 425.41)" fill="#f63"/>
      <rect id="Rectángulo_800" data-name="Rectángulo 800" width="3.824" height="10.945" transform="translate(500.366 426.49)" fill="#f63"/>
      <path id="Trazado_1490" data-name="Trazado 1490" d="M128.185,11.472V6.959l2.663,4.513H134.9L128.409.527h-4.048V11.472Z" transform="translate(356.956 425.963)" fill="#f63"/>
      <path id="Trazado_1491" data-name="Trazado 1491" d="M159.1,11.455c1.257-4.568,4.477-7.677,10.175-7.677,4.7,0,7.827,1.956,9.738,6.545h3.978a10.192,10.192,0,0,0-.736-2.379A13.7,13.7,0,0,0,169.279,0c-7.991,0-12.74,4.737-14.224,11.455Z" transform="translate(355.975 425.98)" fill="#f63"/>
      <path id="Trazado_1492" data-name="Trazado 1492" d="M98,.527H94.043V11.472h20.893V7.716H98Z" transform="translate(357.924 425.963)" fill="#f63"/>
      <path id="Trazado_1493" data-name="Trazado 1493" d="M23.723,67.177h-4.9V65.022H30.99v2.155H26.073V80.188H23.723Z" transform="translate(360.327 417.126)" fill="#f63"/>
      <path id="Trazado_1494" data-name="Trazado 1494" d="M42.838,73.377v6.81H40.6V73.944c0-1.872-.675-2.72-2.11-2.72-1.828,0-2.677,1.414-2.677,4.461v4.5H33.569V65.022H35.81v5.766a3.916,3.916,0,0,1,3.329-1.523c2.393,0,3.7,1.458,3.7,4.112" transform="translate(359.856 417.126)" fill="#f63"/>
      <path id="Trazado_1495" data-name="Trazado 1495" d="M55.2,75.672H47.674A2.725,2.725,0,0,0,50.612,78.5a3.387,3.387,0,0,0,2.741-1.219l1.567,1.349a5.461,5.461,0,0,1-4.33,1.893c-3.547,0-5.157-2.567-5.157-5.505,0-2.871,1.566-5.613,4.983-5.613,3.329,0,4.852,2.48,4.852,5.287a7.412,7.412,0,0,1-.065.98m-2.089-1.806v-.044a2.521,2.521,0,0,0-2.7-2.545,2.7,2.7,0,0,0-2.742,2.589Z" transform="translate(359.477 416.986)" fill="#f63"/>
      <path id="Trazado_1496" data-name="Trazado 1496" d="M63.14,72.607c0-4.743,2.893-7.877,7.159-7.877s7.136,3.134,7.136,7.877c0,4.721-2.893,7.854-7.136,7.854-4.265,0-7.159-3.133-7.159-7.854m11.967,0c0-3.482-1.871-5.658-4.808-5.658s-4.831,2.155-4.831,5.658c0,3.481,1.894,5.635,4.831,5.635s4.808-2.176,4.808-5.635" transform="translate(358.912 417.136)" fill="#f63"/>
      <path id="Trazado_1497" data-name="Trazado 1497" d="M81.171,71.26H79.387V69.454h1.784v-.827c0-2.393,2.023-3.807,4.395-3.807a5.533,5.533,0,0,1,3.068.893,4.716,4.716,0,0,1,2.894-.893A6.625,6.625,0,0,1,95.4,65.886l-1.044,1.589a4.642,4.642,0,0,0-2.72-.849,1.887,1.887,0,0,0-2.154,2.068v.761h6.048V80.181H93.29V71.26H89.483v8.921H87.242V71.26h-3.83v8.921H81.171Zm6.071-1.806v-.8a3.4,3.4,0,0,1,.326-1.523,3.636,3.636,0,0,0-1.894-.5c-1.523,0-2.262.828-2.262,2.024v.8Z" transform="translate(358.393 417.133)" fill="#f63"/>
      <path id="Trazado_1498" data-name="Trazado 1498" d="M98.51,75c0-2.829,1.632-5.591,5.047-5.591a4.609,4.609,0,0,1,4.548,3.089l-2.133.828a2.491,2.491,0,0,0-2.415-1.958c-1.957,0-2.763,1.762-2.763,3.633s.783,3.569,2.785,3.569a2.444,2.444,0,0,0,2.372-1.937l2.046.783a4.486,4.486,0,0,1-4.417,3.111c-3.373,0-5.07-2.654-5.07-5.527" transform="translate(357.782 416.986)" fill="#f63"/>
      <path id="Trazado_1499" data-name="Trazado 1499" d="M110.577,65.022h2.394v2.35h-2.394Zm.087,4.439h2.241V80.187h-2.241Z" transform="translate(357.396 417.126)" fill="#f63"/>
      <path id="Trazado_1500" data-name="Trazado 1500" d="M124.894,73.583v6.745h-2.045l-.174-1.524a3.95,3.95,0,0,1-3.46,1.719c-2.285,0-3.807-1.371-3.807-3.416a2.729,2.729,0,0,1,1.479-2.611,7.3,7.3,0,0,1,3.264-.544h2.5v-.37a2.059,2.059,0,0,0-2.263-2.219,3.674,3.674,0,0,0-3.024,1.675l-1.632-1.371a5.721,5.721,0,0,1,4.679-2.263c2.785,0,4.481,1.567,4.481,4.178m-2.24,2.133v-.044h-2.241a3.669,3.669,0,0,0-2.285.435,1.18,1.18,0,0,0-.479,1.045c0,.914.762,1.48,1.981,1.48a2.876,2.876,0,0,0,3.024-2.916" transform="translate(357.242 416.986)" fill="#f63"/>
      <path id="Trazado_1501" data-name="Trazado 1501" d="M128.239,77.707V65.022h2.241V77.555a.75.75,0,0,0,.848.849,2.823,2.823,0,0,0,.893-.153v1.828a4.887,4.887,0,0,1-1.61.3c-1.392,0-2.372-.848-2.372-2.677" transform="translate(356.832 417.126)" fill="#f63"/>
      <path id="Trazado_1502" data-name="Trazado 1502" d="M138.957,65.022h2.438l3.35,11.619,3.481-10.77h2l3.5,10.77,3.328-11.619H159.5l-4.5,15.165h-2.285l-3.481-10.619-3.481,10.619h-2.285Z" transform="translate(356.489 417.126)" fill="#f63"/>
      <path id="Trazado_1503" data-name="Trazado 1503" d="M170.39,75.672h-7.529A2.725,2.725,0,0,0,165.8,78.5a3.388,3.388,0,0,0,2.742-1.219l1.566,1.349a5.458,5.458,0,0,1-4.329,1.893c-3.547,0-5.157-2.567-5.157-5.505,0-2.871,1.567-5.613,4.983-5.613,3.329,0,4.853,2.48,4.853,5.287a7.418,7.418,0,0,1-.066.98M168.3,73.866v-.044a2.521,2.521,0,0,0-2.7-2.545,2.7,2.7,0,0,0-2.741,2.589Z" transform="translate(355.797 416.986)" fill="#f63"/>
      <path id="Trazado_1504" data-name="Trazado 1504" d="M183.389,74.814c0,3.22-1.61,5.569-4.59,5.569a3.991,3.991,0,0,1-3.241-1.392v1.2h-2.242V65.022h2.242v5.636a4.125,4.125,0,0,1,3.241-1.414c2.742,0,4.59,2.11,4.59,5.57m-2.24.021c0-2.2-.98-3.568-2.872-3.568-1.958,0-2.937,1.524-2.937,3.568,0,2,.935,3.5,2.959,3.5,1.914,0,2.85-1.371,2.85-3.5" transform="translate(355.392 417.126)" fill="#f63"/>
      <path id="Trazado_1505" data-name="Trazado 1505" d="M185.157,77.586l1.806-.805a2.59,2.59,0,0,0,2.568,1.85c1.283,0,1.957-.7,1.957-1.458,0-2.154-5.744-.762-5.744-4.679,0-2,1.741-3.089,3.852-3.089a4.252,4.252,0,0,1,3.981,2.285l-1.741.956a2.494,2.494,0,0,0-2.327-1.436c-1,0-1.632.458-1.632,1.11,0,1.937,5.81.762,5.81,4.721,0,2.393-2.024,3.481-4.07,3.481a4.5,4.5,0,0,1-4.461-2.937" transform="translate(355.013 416.986)" fill="#f63"/>
      <path id="Trazado_1506" data-name="Trazado 1506" d="M196.438,65.022h2.394v2.35h-2.394Zm.087,4.439h2.241V80.187h-2.241Z" transform="translate(354.653 417.126)" fill="#f63"/>
      <path id="Trazado_1507" data-name="Trazado 1507" d="M207.567,80.094a6.325,6.325,0,0,1-1.849.3,2.777,2.777,0,0,1-3.046-3.046V71.282h-1.763V69.476h1.763V67.17l2.241-1.676v3.982h2.633v1.806h-2.633v5.875a1.206,1.206,0,0,0,1.349,1.348,4.364,4.364,0,0,0,1.285-.239Z" transform="translate(354.51 417.111)" fill="#f63"/>
      <path id="Trazado_1508" data-name="Trazado 1508" d="M219.062,75.672h-7.529A2.725,2.725,0,0,0,214.47,78.5a3.388,3.388,0,0,0,2.742-1.219l1.566,1.349a5.458,5.458,0,0,1-4.329,1.893c-3.547,0-5.157-2.567-5.157-5.505,0-2.871,1.567-5.613,4.983-5.613,3.329,0,4.853,2.48,4.853,5.287a7.41,7.41,0,0,1-.066.98m-2.089-1.806v-.044a2.521,2.521,0,0,0-2.7-2.545,2.7,2.7,0,0,0-2.742,2.589Z" transform="translate(354.242 416.986)" fill="#f63"/>
    </g>
  </g>
</svg>
